<svg xmlns="http://www.w3.org/2000/svg" width="1440" height="1024" viewBox="0 0 1440 1024">
  <rect x="0" y="0" width="1440" height="1024" fill="#ffffff"/>
  <rect x="0" y="0" width="1440" height="80" fill="#0f172a"/>
  <text x="40" y="50" font-family="Segoe UI, Arial" font-size="24" fill="#ffffff">Tata Bhuana Scaffolding</text>
  <text x="1040" y="50" font-family="Segoe UI, Arial" font-size="16" fill="#cbd5e1">Home  Tentang  Layanan  Proyek  Cabang  Kontak</text>
  <defs>
    <linearGradient id="heroGrad" x1="0" y1="0" x2="1" y2="0">
      <stop offset="0%" stop-color="#0ea5e9"/>
      <stop offset="100%" stop-color="#22c55e"/>
    </linearGradient>
  </defs>
  <rect x="0" y="80" width="1440" height="260" fill="url(#heroGrad)"/>
  <text x="80" y="170" font-family="Segoe UI, Arial" font-size="40" font-weight="600" fill="#ffffff">Solusi Scaffolding Profesional untuk Proyek Anda</text>
  <text x="80" y="210" font-family="Segoe UI, Arial" font-size="18" fill="#e2e8f0">Kuat, aman, dan efisien untuk kebutuhan konstruksi dan industri.</text>
  <rect x="80" y="230" width="200" height="44" rx="8" fill="#1f2937"/>
  <text x="110" y="258" font-family="Segoe UI, Arial" font-size="16" fill="#ffffff">Lihat Layanan</text>

  <text x="80" y="370" font-family="Segoe UI, Arial" font-size="22" font-weight="600" fill="#0f172a">Scaffolding Unggulan</text>
  <g>
    <rect x="80" y="400" width="380" height="240" rx="12" fill="#f8fafc" stroke="#e2e8f0"/>
    <rect x="80" y="400" width="380" height="130" rx="12" fill="#e2e8f0"/>
    <text x="100" y="560" font-family="Segoe UI, Arial" font-size="18" fill="#0f172a">Frame Scaffold</text>
    <text x="100" y="585" font-family="Segoe UI, Arial" font-size="14" fill="#64748b">Material: Steel • Dimensi: 170x120cm</text>
  </g>
  <g>
    <rect x="520" y="400" width="380" height="240" rx="12" fill="#f8fafc" stroke="#e2e8f0"/>
    <rect x="520" y="400" width="380" height="130" rx="12" fill="#e2e8f0"/>
    <text x="540" y="560" font-family="Segoe UI, Arial" font-size="18" fill="#0f172a">Ringlock Scaffold</text>
    <text x="540" y="585" font-family="Segoe UI, Arial" font-size="14" fill="#64748b">Material: Galvanis • Dimensi: Modular</text>
  </g>
  <g>
    <rect x="960" y="400" width="380" height="240" rx="12" fill="#f8fafc" stroke="#e2e8f0"/>
    <rect x="960" y="400" width="380" height="130" rx="12" fill="#e2e8f0"/>
    <text x="980" y="560" font-family="Segoe UI, Arial" font-size="18" fill="#0f172a">H-Frame Scaffold</text>
    <text x="980" y="585" font-family="Segoe UI, Arial" font-size="14" fill="#64748b">Material: Steel • Dimensi: 200x120cm</text>
  </g>

  <text x="80" y="680" font-family="Segoe UI, Arial" font-size="22" font-weight="600" fill="#0f172a">Proyek Unggulan</text>
  <g>
    <rect x="80" y="710" width="420" height="240" rx="12" fill="#fff7ed" stroke="#fed7aa"/>
    <rect x="80" y="710" width="420" height="140" rx="12" fill="#fed7aa"/>
    <text x="100" y="870" font-family="Segoe UI, Arial" font-size="18" fill="#0f172a">Proyek Gedung A</text>
    <text x="100" y="895" font-family="Segoe UI, Arial" font-size="14" fill="#64748b">Lokasi: Jakarta • Status: Selesai</text>
  </g>
  <g>
    <rect x="520" y="710" width="420" height="240" rx="12" fill="#fff7ed" stroke="#fed7aa"/>
    <rect x="520" y="710" width="420" height="140" rx="12" fill="#fed7aa"/>
    <text x="540" y="870" font-family="Segoe UI, Arial" font-size="18" fill="#0f172a">Proyek Mall B</text>
    <text x="540" y="895" font-family="Segoe UI, Arial" font-size="14" fill="#64748b">Lokasi: Surabaya • Status: Berjalan</text>
  </g>
  <g>
    <rect x="960" y="710" width="420" height="240" rx="12" fill="#fff7ed" stroke="#fed7aa"/>
    <rect x="960" y="710" width="420" height="140" rx="12" fill="#fed7aa"/>
    <text x="980" y="870" font-family="Segoe UI, Arial" font-size="18" fill="#0f172a">Proyek Pabrik C</text>
    <text x="980" y="895" font-family="Segoe UI, Arial" font-size="14" fill="#64748b">Lokasi: Bekasi • Status: Perencanaan</text>
  </g>

  <rect x="0" y="980" width="1440" height="44" fill="#0f172a"/>
  <text x="40" y="1007" font-family="Segoe UI, Arial" font-size="14" fill="#cbd5e1">© Tata Bhuana Scaffolding • Alamat • Telepon • Instagram • Facebook • WhatsApp</text>
</svg>