<svg xmlns="http://www.w3.org/2000/svg" width="1440" height="1024" viewBox="0 0 1440 1024">
  <rect x="0" y="0" width="1440" height="1024" fill="#ffffff"/>
  <rect x="0" y="0" width="1440" height="80" fill="#0f172a"/>
  <text x="40" y="50" font-family="Segoe UI, Arial" font-size="24" fill="#ffffff">Proyek</text>
  <text x="1040" y="50" font-family="Segoe UI, Arial" font-size="16" fill="#cbd5e1">Home  Layanan  Proyek  Cabang  Kontak</text>
  <rect x="40" y="110" width="1360" height="80" rx="8" fill="#f1f5f9" stroke="#e2e8f0"/>
  <text x="60" y="160" font-family="Segoe UI, Arial" font-size="16" fill="#0f172a">Filter: Tipe • Status    Pencarian: Judul, Klien, Lokasi</text>
  <g>
    <rect x="40" y="210" width="420" height="280" rx="12" fill="#fff7ed" stroke="#fed7aa"/>
    <rect x="40" y="210" width="420" height="150" rx="12" fill="#fed7aa"/>
    <text x="60" y="380" font-family="Segoe UI, Arial" font-size="18" fill="#0f172a">Proyek Gedung A</text>
    <text x="60" y="405" font-family="Segoe UI, Arial" font-size="14" fill="#64748b">Lokasi: Jakarta • Status: Selesai</text>
  </g>
  <g>
    <rect x="510" y="210" width="420" height="280" rx="12" fill="#fff7ed" stroke="#fed7aa"/>
    <rect x="510" y="210" width="420" height="150" rx="12" fill="#fed7aa"/>
    <text x="530" y="380" font-family="Segoe UI, Arial" font-size="18" fill="#0f172a">Proyek Mall B</text>
    <text x="530" y="405" font-family="Segoe UI, Arial" font-size="14" fill="#64748b">Lokasi: Surabaya • Status: Berjalan</text>
  </g>
  <g>
    <rect x="980" y="210" width="420" height="280" rx="12" fill="#fff7ed" stroke="#fed7aa"/>
    <rect x="980" y="210" width="420" height="150" rx="12" fill="#fed7aa"/>
    <text x="1000" y="380" font-family="Segoe UI, Arial" font-size="18" fill="#0f172a">Proyek Pabrik C</text>
    <text x="1000" y="405" font-family="Segoe UI, Arial" font-size="14" fill="#64748b">Lokasi: Bekasi • Status: Perencanaan</text>
  </g>
  <g>
    <rect x="40" y="520" width="420" height="280" rx="12" fill="#fff7ed" stroke="#fed7aa"/>
    <rect x="40" y="520" width="420" height="150" rx="12" fill="#fed7aa"/>
    <text x="60" y="690" font-family="Segoe UI, Arial" font-size="18" fill="#0f172a">Proyek Jalan D</text>
    <text x="60" y="715" font-family="Segoe UI, Arial" font-size="14" fill="#64748b">Lokasi: Bandung • Status: Selesai</text>
  </g>
  <g>
    <rect x="510" y="520" width="420" height="280" rx="12" fill="#fff7ed" stroke="#fed7aa"/>
    <rect x="510" y="520" width="420" height="150" rx="12" fill="#fed7aa"/>
    <text x="530" y="690" font-family="Segoe UI, Arial" font-size="18" fill="#0f172a">Proyek Gudang E</text>
    <text x="530" y="715" font-family="Segoe UI, Arial" font-size="14" fill="#64748b">Lokasi: Semarang • Status: Berjalan</text>
  </g>
  <g>
    <rect x="980" y="520" width="420" height="280" rx="12" fill="#fff7ed" stroke="#fed7aa"/>
    <rect x="980" y="520" width="420" height="150" rx="12" fill="#fed7aa"/>
    <text x="1000" y="690" font-family="Segoe UI, Arial" font-size="18" fill="#0f172a">Proyek Tower F</text>
    <text x="1000" y="715" font-family="Segoe UI, Arial" font-size="14" fill="#64748b">Lokasi: Medan • Status: Perencanaan</text>
  </g>
  <rect x="0" y="980" width="1440" height="44" fill="#0f172a"/>
  <text x="40" y="1007" font-family="Segoe UI, Arial" font-size="14" fill="#cbd5e1">© Tata Bhuana Scaffolding</text>
</svg>